<svg height="1000" style="fill:#ffffff;" width="1000" xmlns="http://www.w3.org/2000/svg"><path d="M224.316 394.57l275.652 170.19 -190.836 159.03 -273.42 -178.002zm550.188 309.69v60.264l-273.42 163.494v.558l-.558 -.558 -.558 .558v-.558l-272.862 -163.494v-60.264l82.026 53.568 190.836 -158.472v-1.116l.558 .558 .558 -.558v1.116l191.394 158.472zm-465.372 -638.352l190.836 159.03 -275.652 169.632 -188.604 -150.66zm466.488 328.662l188.604 151.218 -272.862 178.002 -191.394 -159.03zm-84.258 -328.662l272.862 178.002 -188.604 150.66 -275.652 -169.632z"/></svg>