<?xml version="1.0" encoding="UTF-8" standalone="no"?>
<!-- Generator: Adobe Illustrator 16.0.0, SVG Export Plug-In . SVG Version: 6.00 Build 0)  -->

<svg
   xmlns:dc="http://purl.org/dc/elements/1.1/"
   xmlns:cc="http://creativecommons.org/ns#"
   xmlns:rdf="http://www.w3.org/1999/02/22-rdf-syntax-ns#"
   xmlns:svg="http://www.w3.org/2000/svg"
   xmlns="http://www.w3.org/2000/svg"
   xmlns:sodipodi="http://sodipodi.sourceforge.net/DTD/sodipodi-0.dtd"
   xmlns:inkscape="http://www.inkscape.org/namespaces/inkscape"
   version="1.1"
   x="0px"
   y="0px"
   width="112.43993"
   height="169.58537"
   viewBox="0 0 112.43994 169.58537"
   enable-background="new 0 0 960 560"
   xml:space="preserve"
   id="svg2"
   inkscape:version="0.48.4 r9939"
   sodipodi:docname="logo-black-1.svg"
   inkscape:export-filename="/home/stick/work/bitcoin/share-bitkey/logo/logo-black-1.png"
   inkscape:export-xdpi="300"
   inkscape:export-ydpi="300"><metadata
     id="metadata34"><rdf:RDF><cc:Work
         rdf:about=""><dc:format>image/svg+xml</dc:format><dc:type
           rdf:resource="http://purl.org/dc/dcmitype/StillImage" /><dc:title></dc:title></cc:Work></rdf:RDF></metadata><defs
     id="defs32" /><sodipodi:namedview
     pagecolor="#ffffff"
     bordercolor="#666666"
     borderopacity="1"
     objecttolerance="10"
     gridtolerance="10"
     guidetolerance="10"
     inkscape:pageopacity="0"
     inkscape:pageshadow="2"
     inkscape:window-width="1920"
     inkscape:window-height="1176"
     id="namedview30"
     showgrid="false"
     inkscape:zoom="1.1127502"
     inkscape:cx="316.65766"
     inkscape:cy="-80.548483"
     inkscape:window-x="0"
     inkscape:window-y="24"
     inkscape:window-maximized="1"
     inkscape:current-layer="svg2"
     fit-margin-top="0"
     fit-margin-left="0"
     fit-margin-right="0"
     fit-margin-bottom="0"
     units="mm" /><rect
     style="fill:#ffffff;fill-rule:evenodd;stroke:#000000;stroke-width:1;display:none"
     id="rect25"
     height="35"
     width="11"
     clip-rule="evenodd"
     display="none"
     y="173.79779"
     x="216.88763" /><path
     style="fill:#231f20;fill-opacity:1;fill-rule:evenodd;stroke:none"
     d="M 56.219966,-4.4348762e-6 C 32.655776,-4.4348762e-6 13.55303,19.102736 13.55303,42.666936 l 0,15.95304 C 5.28441,60.099076 0,62.143306 0,64.753346 l 0,85.114254 55.608196,19.71778 56.831744,-19.71778 0,-85.114254 c 0,-2.61004 -5.28441,-4.65427 -13.553024,-6.13337 l 0,-15.95304 c 0,-23.5642 -19.10275,-42.6669404348762 -42.66695,-42.6669404348762 z m 0,17.5687404348762 c 13.86123,0 25.0982,11.23697 25.0982,25.0982 l 0,13.89813 c -15.6505,-1.13868 -34.54589,-1.13868 -50.1964,0 l 0,-13.89813 c 0,-13.86123 11.23697,-25.0982 25.0982,-25.0982 z m -1.06667,59.5141 c 19.38836,0.0314 38.71398,1.47451 38.71398,4.23531 l 0,53.772894 -38.29045,14.1648 -39.513976,-14.1648 0,-53.772894 c 0.25098,-2.88628 19.702086,-4.26668 39.090446,-4.23531 z"
     id="path7"
     inkscape:connector-curvature="0" /></svg>