<?xml version="1.0" encoding="UTF-8"?>
<svg width="16px" height="16px" viewBox="0 0 16 16" version="1.1" xmlns="http://www.w3.org/2000/svg" xmlns:xlink="http://www.w3.org/1999/xlink">
    <!-- Generator: Sketch 50.2 (55047) - http://www.bohemiancoding.com/sketch -->
    <title>Fill 1</title>
    <desc>Created with Sketch.</desc>
    <defs></defs>
    <g id="Page-1" stroke="none" stroke-width="1" fill="none" fill-rule="evenodd">
        <g id="Import-keys-1/3" transform="translate(-888.000000, -130.000000)" fill="#ED1212">
            <g id="popup" transform="translate(130.000000, 105.000000)">
                <path d="M773.588,38.55925 C774.138,39.11025 774.138,40.01925 773.588,40.58025 C773.308,40.84925 772.947,40.99925 772.567,40.99925 C772.188,40.99925 771.828,40.84925 771.558,40.58025 L765.999,35.01925 L760.44,40.58025 C759.93,41.11025 758.97,41.12925 758.42,40.58025 C757.86,40.01925 757.86,39.11025 758.42,38.55925 L763.989,32.99925 L758.42,27.44025 C757.86,26.87925 757.86,25.98025 758.42,25.41925 C758.96,24.87925 759.9,24.87925 760.44,25.41925 L765.999,30.98025 L771.558,25.41925 C772.118,24.86025 773.027,24.86025 773.588,25.41925 C774.138,25.98025 774.138,26.87925 773.588,27.44025 L768.019,32.99925 L773.588,38.55925 Z" id="Fill-1"></path>
            </g>
        </g>
    </g>
</svg>