<?xml version="1.0" encoding="UTF-8"?>
<svg width="46px" height="46px" viewBox="0 0 46 46" version="1.1" xmlns="http://www.w3.org/2000/svg" xmlns:xlink="http://www.w3.org/1999/xlink">
    <!-- Generator: Sketch 50.2 (55047) - http://www.bohemiancoding.com/sketch -->
    <title>csv</title>
    <desc>Created with Sketch.</desc>
    <defs></defs>
    <g id="Page-1" stroke="none" stroke-width="1" fill="none" fill-rule="evenodd">
        <g id="Import-keys-1/3" transform="translate(-507.000000, -282.000000)" fill-rule="nonzero">
            <g id="popup" transform="translate(130.000000, 105.000000)">
                <g id="csv" transform="translate(377.000000, 177.000000)">
                    <polygon id="Shape" fill="#0E512B" points="43 26 3 26 0 22 4 18 42 18 46 22"></polygon>
                    <path d="M40,46 L6,46 C4.895,46 4,45.105 4,44 L4,2 C4,0.895 4.895,0 6,0 L30,0 L42,12 L42,44 C42,45.105 41.105,46 40,46 Z" id="Shape" fill="#E9E9E9"></path>
                    <path d="M30,0 L30,10 C30,11.105 30.895,12 32,12 L42,12 L30,0 Z" id="Shape" fill="#C1C1C1"></path>
                    <path d="M44,40 L2,40 C0.895,40 0,39.105 0,38 L0,22 L46,22 L46,38 C46,39.105 45.105,40 44,40 Z" id="Shape" fill="#1B7343"></path>
                    <path d="M16.786,28.775 C16.281,28.775 15.887,28.981 15.604,29.395 C15.321,29.808 15.18,30.378 15.18,31.105 C15.18,32.617 15.755,33.373 16.904,33.373 C17.251,33.373 17.588,33.324 17.914,33.227 C18.24,33.13 18.567,33.014 18.897,32.878 L18.897,34.671 C18.242,34.962 17.501,35.107 16.673,35.107 C15.488,35.107 14.579,34.763 13.947,34.076 C13.315,33.388 12.999,32.394 12.999,31.096 C12.999,30.283 13.152,29.569 13.458,28.952 C13.765,28.336 14.205,27.862 14.779,27.531 C15.354,27.2 16.03,27.035 16.807,27.035 C17.656,27.035 18.467,27.219 19.24,27.588 L18.59,29.258 C18.3,29.122 18.01,29.008 17.72,28.914 C17.43,28.821 17.119,28.775 16.786,28.775 Z" id="Shape" fill="#FFFFFF"></path>
                    <path d="M25.562,32.615 C25.562,33.102 25.438,33.534 25.191,33.912 C24.944,34.29 24.587,34.584 24.122,34.793 C23.657,35.003 23.11,35.107 22.484,35.107 C21.961,35.107 21.523,35.07 21.168,34.997 C20.813,34.924 20.445,34.796 20.062,34.613 L20.062,32.722 C20.467,32.93 20.887,33.092 21.324,33.208 C21.761,33.324 22.162,33.382 22.527,33.382 C22.842,33.382 23.073,33.328 23.22,33.219 C23.367,33.11 23.44,32.969 23.44,32.797 C23.44,32.69 23.41,32.596 23.352,32.515 C23.292,32.435 23.198,32.353 23.067,32.271 C22.937,32.189 22.588,32.02 22.023,31.766 C21.511,31.534 21.127,31.308 20.871,31.089 C20.615,30.87 20.425,30.62 20.302,30.337 C20.178,30.054 20.116,29.72 20.116,29.333 C20.116,28.609 20.379,28.045 20.906,27.641 C21.433,27.237 22.156,27.035 23.076,27.035 C23.889,27.035 24.718,27.223 25.563,27.598 L24.913,29.236 C24.179,28.9 23.545,28.732 23.012,28.732 C22.736,28.732 22.536,28.78 22.41,28.877 C22.284,28.974 22.222,29.094 22.222,29.236 C22.222,29.39 22.302,29.528 22.461,29.65 C22.62,29.772 23.052,29.994 23.758,30.316 C24.435,30.621 24.904,30.947 25.168,31.296 C25.43,31.646 25.562,32.085 25.562,32.615 Z" id="Shape" fill="#FFFFFF"></path>
                    <path d="M31.186,27.147 L33.56,27.147 L30.987,35 L28.489,35 L25.927,27.147 L28.312,27.147 L29.381,31.126 C29.603,32.011 29.725,32.627 29.746,32.974 C29.771,32.724 29.821,32.411 29.896,32.035 C29.971,31.659 30.038,31.363 30.095,31.148 L31.186,27.147 Z" id="Shape" fill="#FFFFFF"></path>
                </g>
            </g>
        </g>
    </g>
</svg>