<?xml version="1.0" encoding="UTF-8"?>
<svg width="18px" height="48px" viewBox="0 0 18 48" version="1.1" xmlns="http://www.w3.org/2000/svg" xmlns:xlink="http://www.w3.org/1999/xlink">
    <defs></defs>
    <g id="Page-1" stroke="none" stroke-width="1" fill="none" fill-rule="evenodd">
        <g id="start-#2-copy-2" transform="translate(-631.000000, -514.000000)" fill="#FFFFFF">
            <g id="Group-4" transform="translate(580.000000, 499.000000)">
                <g id="Group-2" transform="translate(51.000000, 15.000000)">
                    <g id="T1">
                        <g id="Trezor_2_">
                            <g id="Trezor_3_" fill-rule="nonzero">
                                <path d="M10.374,33.567 L7.614,33.567 C6.159,33.567 4.806,32.754 4.077,31.446 L1.884,27.51 C0.651,25.302 0,22.785 0,20.232 L0,4.815 C0,2.79 1.383,1.032 3.288,0.636 L3.705,0.549 C7.218,-0.183 10.779,-0.183 14.295,0.549 L14.709,0.636 C16.617,1.032 18,2.79 18,4.815 L18,20.13 C18,22.644 17.367,25.128 16.173,27.315 L13.926,31.416 C13.2,32.742 11.838,33.567 10.374,33.567 Z M9,1.704 C7.338,1.704 5.676,1.875 4.026,2.22 L3.606,2.307 C2.463,2.544 1.635,3.6 1.635,4.815 L1.635,20.229 C1.635,22.482 2.208,24.705 3.294,26.652 L5.487,30.588 C5.922,31.371 6.738,31.86 7.608,31.86 L10.368,31.86 C11.247,31.86 12.063,31.365 12.498,30.57 L14.745,26.469 C15.801,24.54 16.359,22.347 16.359,20.13 L16.359,4.815 C16.359,3.6 15.531,2.544 14.385,2.307 L13.974,2.22 C12.324,1.878 10.662,1.704 9,1.704 Z" id="Shape"></path>
                            </g>
                            <path d="M14.592,13.755 L3.408,13.755 C3.183,13.755 3,13.572 3,13.347 L3,6.819 C3,6.594 3.183,6.411 3.408,6.411 L14.592,6.411 C14.817,6.411 15,6.594 15,6.819 L15,13.347 C15,13.572 14.817,13.755 14.592,13.755 Z" id="Shape"></path>
                        </g>
                        <polygon id="Shape" points="11.667 37.521 11.667 42.405 9.96 42.405 9.96 48 8.094 48 8.094 42.405 6.333 42.405 6.333 37.521"></polygon>
                    </g>
                </g>
            </g>
        </g>
    </g>
</svg>