<?xml version="1.0" encoding="UTF-8"?>
<svg width="167px" height="109px" viewBox="0 0 167 109" version="1.1" xmlns="http://www.w3.org/2000/svg" xmlns:xlink="http://www.w3.org/1999/xlink">
    <!-- Generator: Sketch 49.1 (51147) - http://www.bohemiancoding.com/sketch -->
    <title>Group 10</title>
    <desc>Created with Sketch.</desc>
    <defs>
        <linearGradient x1="-18.9038234%" y1="84.5976591%" x2="72.6763662%" y2="84.5976587%" id="linearGradient-1">
            <stop stop-color="#FFFFFF" offset="0%"></stop>
            <stop stop-color="#E8E8E8" offset="71.3377225%"></stop>
            <stop stop-color="#F5F5F5" offset="75.783547%"></stop>
            <stop stop-color="#EDEEEE" offset="80.9337916%"></stop>
            <stop stop-color="#DDDDDD" offset="100%"></stop>
        </linearGradient>
        <linearGradient x1="50%" y1="100%" x2="50%" y2="3.061617e-15%" id="linearGradient-2">
            <stop stop-color="#FFFFFF" offset="0%"></stop>
            <stop stop-color="#EDEEEE" offset="100%"></stop>
        </linearGradient>
        <path d="M5.03810444,15.6383086 L26.008934,2.2465458 C30.0532166,-0.336092732 35.2386936,-0.296495993 39.2430643,2.34760273 L59.2896308,15.5844143 C63.644926,18.4602296 64.8442814,24.3222028 61.9684662,28.677498 C61.2417084,29.7781406 60.2926005,30.7144628 59.1822029,31.4262269 L38.5567523,44.6471263 C34.5608123,47.2085211 29.4391877,47.2085211 25.4432477,44.6471263 L5.02449644,31.5587211 C0.630600118,28.7422366 -0.648144843,22.8970681 2.16833963,18.5031717 C2.90635946,17.3518135 3.88548623,16.3743591 5.03810444,15.6383086 Z" id="path-3"></path>
        <filter x="-13.4%" y="-21.7%" width="126.8%" height="143.5%" filterUnits="objectBoundingBox" id="filter-5">
            <feGaussianBlur stdDeviation="2.7" in="SourceGraphic"></feGaussianBlur>
        </filter>
        <path d="M5.80421513,17.6152859 L29.603144,2.50758785 C34.1743692,-0.394252409 40.0214507,-0.349712069 44.5479383,2.62143032 L67.2964281,17.5533177 C72.2442167,20.800998 73.6224267,27.4447382 70.3747464,32.3925268 C69.543258,33.6592861 68.4525782,34.7353084 67.1746855,35.5495826 L43.7676829,50.4645431 C39.251146,53.342484 33.4761268,53.342484 28.9595898,50.4645431 L5.78879579,35.7000949 C0.797521726,32.5196512 -0.67044628,25.895165 2.50999748,20.9038909 C3.35385684,19.5795684 4.47845555,18.4568858 5.80421513,17.6152859 Z" id="path-6"></path>
        <filter x="-13.3%" y="-21.8%" width="126.7%" height="143.6%" filterUnits="objectBoundingBox" id="filter-8">
            <feGaussianBlur stdDeviation="3.0618" in="SourceGraphic"></feGaussianBlur>
        </filter>
        <linearGradient x1="0%" y1="50%" x2="113.167908%" y2="50%" id="linearGradient-9">
            <stop stop-color="#F7F7F7" offset="0%"></stop>
            <stop stop-color="#E3E3E3" offset="100%"></stop>
        </linearGradient>
        <linearGradient x1="113.167908%" y1="50%" x2="0%" y2="50%" id="linearGradient-10">
            <stop stop-color="#F7F7F7" offset="0%"></stop>
            <stop stop-color="#E3E3E3" offset="100%"></stop>
        </linearGradient>
        <rect id="path-11" x="-2.55795385e-13" y="0" width="12.4871705" height="6.1881692" rx="0.77000625"></rect>
        <filter x="-4.0%" y="-8.1%" width="108.0%" height="132.3%" filterUnits="objectBoundingBox" id="filter-12">
            <feOffset dx="0" dy="1" in="SourceAlpha" result="shadowOffsetOuter1"></feOffset>
            <feColorMatrix values="0 0 0 0 0.890332696   0 0 0 0 0.890332696   0 0 0 0 0.890332696  0 0 0 1 0" type="matrix" in="shadowOffsetOuter1"></feColorMatrix>
        </filter>
        <linearGradient x1="50%" y1="100%" x2="50%" y2="3.061617e-15%" id="linearGradient-13">
            <stop stop-color="#141313" offset="0%"></stop>
            <stop stop-color="#5B5B5B" offset="100%"></stop>
        </linearGradient>
        <rect id="path-14" x="-5.1159077e-13" y="0" width="12.4871705" height="31.3276066" rx="0.77000625"></rect>
        <linearGradient x1="50%" y1="-2.48949813e-15%" x2="50%" y2="100%" id="linearGradient-16">
            <stop stop-color="#FFFFFF" offset="0%"></stop>
            <stop stop-color="#EDEEEE" offset="100%"></stop>
        </linearGradient>
        <path d="M32.7788226,64.9757766 C14.6755788,64.9757766 0,50.4304535 0,32.4878883 C0,14.545323 14.6755788,0 32.7788226,0 C50.8820664,0 65.5576452,14.545323 65.5576452,32.4878883 C65.5576452,50.4304535 50.8820664,64.9757766 32.7788226,64.9757766 Z M32.9739346,58.7876074 C47.5211841,58.7876074 59.3140599,47.0994014 59.3140599,32.6812686 C59.3140599,18.2631358 47.5211841,6.57492977 32.9739346,6.57492977 C18.4266851,6.57492977 6.63380933,18.2631358 6.63380933,32.6812686 C6.63380933,47.0994014 18.4266851,58.7876074 32.9739346,58.7876074 Z" id="path-17"></path>
        <filter x="-1.5%" y="-1.5%" width="103.1%" height="106.2%" filterUnits="objectBoundingBox" id="filter-18">
            <feOffset dx="0" dy="2" in="SourceAlpha" result="shadowOffsetOuter1"></feOffset>
            <feColorMatrix values="0 0 0 0 0.926870748   0 0 0 0 0.926870748   0 0 0 0 0.926870748  0 0 0 1 0" type="matrix" in="shadowOffsetOuter1"></feColorMatrix>
        </filter>
    </defs>
    <g id="Page-1" stroke="none" stroke-width="1" fill="none" fill-rule="evenodd">
        <g id="Application-nothing-found" transform="translate(-546.000000, -248.000000)">
            <g id="Group-10" transform="translate(546.000000, 247.000000)">
                <g id="Group-3" transform="translate(75.000000, 58.000000)">
                    <g id="Group" transform="translate(33.000000, 27.000000) rotate(2.000000) translate(-33.000000, -27.000000) translate(1.000000, 2.000000)">
                        <path d="M5.03810444,18.8049753 L26.008934,5.41321246 C30.0532166,2.83057393 35.2386936,2.87017067 39.2430643,5.5142694 L59.2896308,18.751081 C63.644926,21.6268963 64.8442814,27.4888695 61.9684662,31.8441647 C61.2417084,32.9448073 60.2926005,33.8811295 59.1822029,34.5928936 L38.5567523,47.813793 C34.5608123,50.3751877 29.4391877,50.3751877 25.4432477,47.813793 L5.02449644,34.7253877 C0.630600118,31.9089033 -0.648144843,26.0637347 2.16833963,21.6698384 C2.90635946,20.5184802 3.88548623,19.5410258 5.03810444,18.8049753 Z" id="Path-29" fill="url(#linearGradient-1)"></path>
                        <g id="Path-2" transform="translate(0.000000, -0.000000)">
                            <mask id="mask-4" fill="white">
                                <use xlink:href="#path-3"></use>
                            </mask>
                            <use id="Mask" fill="url(#linearGradient-2)" xlink:href="#path-3"></use>
                            <path d="M10.7795159,10.4410806 L40.6974027,27.2086318 C43.1044469,28.5576655 46.0707582,28.4123993 48.334471,26.8346294 L71.3319861,10.8057461 L39.4912524,-9.15454099 L10.7795159,10.4410806 Z" fill-opacity="0.300000012" fill="#D8D8D8" filter="url(#filter-5)" mask="url(#mask-4)"></path>
                        </g>
                    </g>
                </g>
                <g id="Group-3-Copy-2" transform="translate(30.000000, 0.000000)">
                    <g id="Group" transform="translate(37.627233, 29.763860) rotate(2.000000) translate(-37.627233, -29.763860) translate(1.127233, 1.263860)">
                        <path d="M5.80421513,21.1924464 L29.603144,6.08474835 C34.1743692,3.18290809 40.0214507,3.22744843 44.5479383,6.19859082 L67.2964281,21.1304782 C72.2442167,24.3781585 73.6224267,31.0218987 70.3747464,35.9696873 C69.543258,37.2364466 68.4525782,38.3124689 67.1746855,39.1267431 L43.7676829,54.0417036 C39.251146,56.9196445 33.4761268,56.9196445 28.9595898,54.0417036 L5.78879579,39.2772554 C0.797521726,36.0968117 -0.67044628,29.4723255 2.50999748,24.4810514 C3.35385684,23.1567289 4.47845555,22.0340462 5.80421513,21.1924464 Z" id="Path-29" fill="url(#linearGradient-1)"></path>
                        <g id="Path-2" transform="translate(0.000000, -0.000000)">
                            <mask id="mask-7" fill="white">
                                <use xlink:href="#path-6"></use>
                            </mask>
                            <use id="Mask" fill="url(#linearGradient-2)" xlink:href="#path-6"></use>
                            <path d="M32.9352564,31.0843806 L66.9622006,50.0418526 C69.6819736,51.557123 73.0267689,51.393748 75.5859222,49.620631 L101.744882,31.4963176 L65.5622296,8.94858586 L32.9352564,31.0843806 Z" fill-opacity="0.300000012" fill="#D8D8D8" filter="url(#filter-8)" mask="url(#mask-7)"></path>
                        </g>
                    </g>
                </g>
                <g id="Group-7" transform="translate(72.000000, 4.000000)">
                    <g id="Group-3-Copy">
                        <g id="Group">
                            <path d="M7.19462257,28.3906113 L38.5529391,8.15471224 C44.5787871,4.26616001 52.3380153,4.3256603 58.3035207,8.30616614 L88.2869693,28.3127343 C94.7186277,32.6042824 96.4535299,41.2971589 92.1619818,47.7288173 C91.1025612,49.31655 89.7296618,50.6708775 88.1276481,51.7085765 L57.2858466,71.6862505 C51.3319171,75.5428885 43.6680829,75.5428885 37.7141534,71.6862505 L7.17443677,51.904251 C0.684928315,47.7006936 -1.16820113,39.0322509 3.03535631,32.5427425 C4.11238721,30.8800077 5.53004106,29.4647858 7.19462257,28.3906113 Z" id="Path-29" fill="url(#linearGradient-1)"></path>
                            <path d="M7.19462257,23.6406113 L38.5529391,3.40471224 C44.5787871,-0.483839987 52.3380153,-0.424339698 58.3035207,3.55616614 L88.2869693,23.5627343 C94.7186277,27.8542824 96.4535299,36.5471589 92.1619818,42.9788173 C91.1025612,44.56655 89.7296618,45.9208775 88.1276481,46.9585765 L57.2858466,66.9362505 C51.3319171,70.7928885 43.6680829,70.7928885 37.7141534,66.9362505 L7.17443677,47.154251 C0.684928315,42.9506936 -1.16820113,34.2822509 3.03535631,27.7927425 C4.11238721,26.1300077 5.53004106,24.7147858 7.19462257,23.6406113 Z" id="Path-29" fill="url(#linearGradient-2)"></path>
                        </g>
                    </g>
                </g>
                <g id="Group-8" transform="translate(46.000000, 58.000000) rotate(-1.000000) translate(-46.000000, -58.000000) translate(1.000000, 11.000000)">
                    <g id="Group-5">
                        <g id="Group-3">
                            <g id="Group" transform="translate(69.314824, 72.246564) rotate(-42.000000) translate(-69.314824, -72.246564) translate(62.814824, 49.746564)">
                                <rect id="Rectangle-2" fill="url(#linearGradient-9)" x="1.56089631" y="5.41464805" width="9.36537788" height="7.7352115"></rect>
                                <g id="Rectangle">
                                    <use fill="black" fill-opacity="1" filter="url(#filter-12)" xlink:href="#path-11"></use>
                                    <use fill="url(#linearGradient-10)" fill-rule="evenodd" xlink:href="#path-11"></use>
                                </g>
                                <g id="Group-2" transform="translate(0.000000, 12.763099)">
                                    <mask id="mask-15" fill="white">
                                        <use xlink:href="#path-14"></use>
                                    </mask>
                                    <use id="Mask" fill="url(#linearGradient-13)" xlink:href="#path-14"></use>
                                    <g mask="url(#mask-15)" stroke="#FFFFFF" stroke-opacity="0.14" stroke-width="0.5">
                                        <g transform="translate(5.349830, 13.574682) rotate(-330.000000) translate(-5.349830, -13.574682) translate(-9.650170, -2.425318)">
                                            <path d="M0,17.961009 C2.79243119,15.2891406 5.37014795,14.2841792 7.73315028,14.9461247 C11.2776538,15.9390431 14.9079287,17.7638601 18.3194865,16.3549924 C20.5938584,15.4157473 22.7484362,12.8003274 24.7832199,8.50873265" id="Path-32"></path>
                                            <path d="M1.17067224,22.6021359 C3.96310342,19.9302675 6.54082019,18.9253061 8.90382252,19.5872516 C12.448326,20.58017 16.0786009,22.404987 19.4901587,20.9961193 C21.7645306,20.0568742 23.9191084,17.4414543 25.9538922,13.1498595" id="Path-32-Copy-2"></path>
                                            <path d="M3.51201671,26.8565022 C6.30444789,24.1846338 8.88216466,23.1796724 11.245167,23.841618 C14.7896705,24.8345363 18.4199454,26.6593533 21.8315032,25.2504856 C24.1058751,24.3112405 26.2604529,21.6958206 28.2952366,17.4042259" id="Path-32-Copy-3"></path>
                                            <path d="M4.29246486,31.4976291 C7.08489605,28.8257607 9.66261281,27.8207993 12.0256151,28.4827449 C15.5701186,29.4756632 19.2003936,31.3004802 22.6119514,29.8916125 C24.8863232,28.9523674 27.040901,26.3369475 29.0756848,22.0453528" id="Path-32-Copy-4"></path>
                                            <path d="M0,14.0934033 C2.79243119,11.4215349 5.37014795,10.4165735 7.73315028,11.078519 C11.2776538,12.0714373 14.9079287,13.8962543 18.3194865,12.4873867 C20.5938584,11.5481416 22.7484362,8.93272163 24.7832199,4.6411269" id="Path-32"></path>
                                            <path d="M0,9.45227636 C2.79243119,6.78040797 5.37014795,5.77544655 7.73315028,6.4373921 C11.2776538,7.43031042 14.9079287,9.25512743 18.3194865,7.84625976 C20.5938584,6.90701465 22.7484362,4.29159473 24.7832199,0" id="Path-32-Copy"></path>
                                        </g>
                                    </g>
                                </g>
                            </g>
                            <g id="Combined-Shape">
                                <use fill="black" fill-opacity="1" filter="url(#filter-18)" xlink:href="#path-17"></use>
                                <use fill="url(#linearGradient-16)" fill-rule="evenodd" xlink:href="#path-17"></use>
                            </g>
                        </g>
                    </g>
                </g>
            </g>
        </g>
    </g>
</svg>