<?xml version="1.0" encoding="UTF-8"?>
<svg width="211px" height="52px" viewBox="0 0 211 52" version="1.1" xmlns="http://www.w3.org/2000/svg" xmlns:xlink="http://www.w3.org/1999/xlink">
    <!-- Generator: Sketch 48.2 (47327) - http://www.bohemiancoding.com/sketch -->
    <title>Group 3</title>
    <desc>Created with Sketch.</desc>
    <defs></defs>
    <g id="start-#2" stroke="none" stroke-width="1" fill="none" fill-rule="evenodd" transform="translate(-614.000000, -410.000000)">
        <g id="Group-2" transform="translate(614.000000, 410.000000)" fill="#FFFFFF">
            <g id="Logotype">
                <g id="Group-3">
                    <path d="M50.688,20.8 L50.688,1.5904 L60.3072,1.5904 C64.6272,1.5904 66.9888,4.4992 66.9888,7.984 C66.9888,11.44 64.6272,14.2912 60.3072,14.2912 L55.6416,14.2912 L55.6416,20.8 L50.688,20.8 Z M61.9488,7.9552 C61.9488,6.6304 60.9696,5.7664 59.6448,5.7664 L55.6416,5.7664 L55.6416,10.0864 L59.6448,10.0864 C60.9696,10.0864 61.9488,9.2512 61.9488,7.9552 Z M82.4832,20.8 L81.504,17.8912 L73.5264,17.8912 L72.5472,20.8 L67.1616,20.8 L74.3904,1.5904 L80.6112,1.5904 L87.8688,20.8 L82.4832,20.8 Z M77.5008,5.9104 L74.8224,13.7152 L80.208,13.7152 L77.5008,5.9104 Z M87.8976,18.0928 L90.5184,14.3776 C91.9008,15.76 94.032,16.912 96.6528,16.912 C98.352,16.912 99.3888,16.192 99.3888,15.2704 C99.3888,14.176 98.1504,13.744 96.1056,13.312 C92.9376,12.6784 88.5024,11.872 88.5024,7.3216 C88.5024,4.096 91.2384,1.3024 96.1632,1.3024 C99.2448,1.3024 101.9232,2.224 103.968,3.9808 L101.2608,7.5232 C99.648,6.1984 97.5456,5.536 95.8464,5.536 C94.2048,5.536 93.5712,6.1984 93.5712,7.0336 C93.5712,8.0416 94.752,8.3872 96.8832,8.7904 C100.0512,9.4528 104.4288,10.3744 104.4288,14.7232 C104.4288,18.5824 101.5776,21.1456 96.4224,21.1456 C92.5344,21.1456 89.8272,19.936 87.8976,18.0928 Z M105.3504,18.0928 L107.9712,14.3776 C109.3536,15.76 111.4848,16.912 114.1056,16.912 C115.8048,16.912 116.8416,16.192 116.8416,15.2704 C116.8416,14.176 115.6032,13.744 113.5584,13.312 C110.3904,12.6784 105.9552,11.872 105.9552,7.3216 C105.9552,4.096 108.6912,1.3024 113.616,1.3024 C116.6976,1.3024 119.376,2.224 121.4208,3.9808 L118.7136,7.5232 C117.1008,6.1984 114.9984,5.536 113.2992,5.536 C111.6576,5.536 111.024,6.1984 111.024,7.0336 C111.024,8.0416 112.2048,8.3872 114.336,8.7904 C117.504,9.4528 121.8816,10.3744 121.8816,14.7232 C121.8816,18.5824 119.0304,21.1456 113.8752,21.1456 C109.9872,21.1456 107.28,19.936 105.3504,18.0928 Z M138.8448,20.8 L135.936,8.7616 L133.0272,20.8 L127.7856,20.8 L122.2848,1.5904 L127.8432,1.5904 L130.752,14.4064 L134.0352,1.5904 L137.8368,1.5904 L141.12,14.4064 L144,1.5904 L149.5872,1.5904 L144.0864,20.8 L138.8448,20.8 Z M150.1632,11.2096 C150.1632,5.3632 154.5696,1.2736 160.4448,1.2736 C166.32,1.2736 170.6976,5.3632 170.6976,11.2096 C170.6976,17.056 166.32,21.1456 160.4448,21.1456 C154.5696,21.1456 150.1632,17.056 150.1632,11.2096 Z M165.6576,11.2096 C165.6576,8.0704 163.6128,5.6512 160.4448,5.6512 C157.248,5.6512 155.2032,8.0704 155.2032,11.2096 C155.2032,14.32 157.248,16.768 160.4448,16.768 C163.6128,16.768 165.6576,14.32 165.6576,11.2096 Z M183.9168,20.8 L180.6912,14.2912 L178.1568,14.2912 L178.1568,20.8 L173.2032,20.8 L173.2032,1.5904 L182.8224,1.5904 C187.0848,1.5904 189.504,4.4128 189.504,7.984 C189.504,11.3248 187.4592,13.1104 185.6736,13.744 L189.5904,20.8 L183.9168,20.8 Z M184.464,7.9264 C184.464,6.6016 183.3696,5.7664 182.0736,5.7664 L178.1568,5.7664 L178.1568,10.0864 L182.0736,10.0864 C183.3696,10.0864 184.464,9.2512 184.464,7.9264 Z M192.24,20.8 L192.24,1.5904 L200.304,1.5904 C206.352,1.5904 210.7008,5.2192 210.7008,11.1808 C210.7008,17.1424 206.352,20.8 200.3328,20.8 L192.24,20.8 Z M197.1936,16.48 L200.304,16.48 C203.6736,16.48 205.632,14.032 205.632,11.1808 C205.632,8.2144 203.8464,5.9104 200.3328,5.9104 L197.1936,5.9104 L197.1936,16.48 Z M67.6224,49.6 L67.6224,33.616 L61.0848,49.6 L60.1056,49.6 L53.5968,33.616 L53.5968,49.6 L51.2064,49.6 L51.2064,30.3904 L54.6336,30.3904 L60.5952,45.0208 L66.5856,30.3904 L70.0128,30.3904 L70.0128,49.6 L67.6224,49.6 Z M92.3328001,49.6 L90.6336001,45.3376 L80.8992001,45.3376 L79.2000001,49.6 L76.5504001,49.6 L84.2688001,30.3904 L87.2352001,30.3904 L94.9824001,49.6 L92.3328001,49.6 Z M85.7664001,32.5216 L81.5904001,43.2064 L89.9136001,43.2064 L85.7664001,32.5216 Z M115.1136,49.6 L103.9104,34.1056 L103.9104,49.6 L101.52,49.6 L101.52,30.3904 L103.968,30.3904 L115.0272,45.568 L115.0272,30.3904 L117.4176,30.3904 L117.4176,49.6 L115.1136,49.6 Z M139.7376,49.6 L138.0384,45.3376 L128.304,45.3376 L126.6048,49.6 L123.9552,49.6 L131.6736,30.3904 L134.64,30.3904 L142.3872,49.6 L139.7376,49.6 Z M133.1712,32.5216 L128.9952,43.2064 L137.3184,43.2064 L133.1712,32.5216 Z M147.0816,40.0096 C147.0816,34.048 151.488,30.0736 156.96,30.0736 C160.3584,30.0736 162.72,31.5712 164.4192,33.6736 L162.5184,34.8544 C161.3088,33.2992 159.264,32.2048 156.96,32.2048 C152.7552,32.2048 149.5584,35.4304 149.5584,40.0096 C149.5584,44.56 152.7552,47.8432 156.96,47.8432 C159.264,47.8432 161.1648,46.72 162.1152,45.7696 L162.1152,41.8528 L155.52,41.8528 L155.52,39.7216 L164.5056,39.7216 L164.5056,46.6624 C162.72,48.6496 160.0992,49.9744 156.96,49.9744 C151.488,49.9744 147.0816,45.9712 147.0816,40.0096 Z M172.4256,49.6 L172.4256,30.3904 L185.0112,30.3904 L185.0112,32.5216 L174.816,32.5216 L174.816,38.7136 L184.8096,38.7136 L184.8096,40.8448 L174.816,40.8448 L174.816,47.4688 L185.0112,47.4688 L185.0112,49.6 L172.4256,49.6 Z M203.9616,49.6 L199.0656,41.968 L195.2352,41.968 L195.2352,49.6 L192.8448,49.6 L192.8448,30.3904 L200.5632,30.3904 C204.0768,30.3904 206.5824,32.6368 206.5824,36.1792 C206.5824,39.6352 204.2208,41.536 201.6,41.7664 L206.784,49.6 L203.9616,49.6 Z M204.1056,36.1792 C204.1056,34.0192 202.5504,32.5216 200.2752,32.5216 L195.2352,32.5216 L195.2352,39.8656 L200.2752,39.8656 C202.5504,39.8656 204.1056,38.3392 204.1056,36.1792 Z" id="Password-manager"></path>
                    <path d="M28.6849172,16.362982 L33.6,16.362982 L33.5661913,43.1950175 L16.8005829,51.28 L0,43.1950175 L0,16.362982 L4.91741439,16.362982 L4.91741439,12.5960058 C4.91741439,6.13644172 10.2498595,0.88 16.8029145,0.88 C23.3524722,0.88 28.6849172,6.13644172 28.6849172,12.5960058 L28.6849172,16.362982 Z M26.8382638,38.7326366 L26.8382638,22.6589215 L6.76173623,22.6589215 L6.76173623,38.7326366 L16.8005829,43.5619699 L26.8382638,38.7326366 Z M11.0134693,12.5960058 L11.0134693,16.362982 L22.5888623,16.362982 L22.5888623,12.5960058 C22.5888623,9.60624669 19.9914229,7.17353322 16.8029145,7.17353322 C13.6109087,7.17353322 11.0134693,9.60624669 11.0134693,12.5960058 Z" id="Logotype"></path>
                </g>
            </g>
        </g>
    </g>
</svg>