<?xml version="1.0" encoding="utf-8"?>
<!-- Generator: Adobe Illustrator 18.0.0, SVG Export Plug-In . SVG Version: 6.00 Build 0)  -->
<!DOCTYPE svg PUBLIC "-//W3C//DTD SVG 1.1//EN" "http://www.w3.org/Graphics/SVG/1.1/DTD/svg11.dtd">
<svg version="1.1"
	 id="svg2" xmlns:dc="http://purl.org/dc/elements/1.1/" xmlns:cc="http://creativecommons.org/ns#" xmlns:rdf="http://www.w3.org/1999/02/22-rdf-syntax-ns#" xmlns:svg="http://www.w3.org/2000/svg" xmlns:sodipodi="http://sodipodi.sourceforge.net/DTD/sodipodi-0.dtd" xmlns:inkscape="http://www.inkscape.org/namespaces/inkscape" inkscape:export-ydpi="300.05356" inkscape:export-xdpi="300.05356" inkscape:export-filename="/home/stick/work/bitcoin/share-bitkey/logo/logo-black-vert-2.png" sodipodi:docname="logo-black-vert-2.svg" inkscape:version="0.48.4 r9939"
	 xmlns="http://www.w3.org/2000/svg" xmlns:xlink="http://www.w3.org/1999/xlink" x="0px" y="0px" viewBox="0 0 560 560"
	 enable-background="new 0 0 560 560" xml:space="preserve">
<sodipodi:namedview  inkscape:cy="14.586239" inkscape:cx="266.29579" inkscape:zoom="0.76280916" showgrid="false" guidetolerance="10" gridtolerance="10" objecttolerance="10" borderopacity="1" pagecolor="#ffffff" bordercolor="#666666" id="namedview30" inkscape:current-layer="svg2" inkscape:window-maximized="1" inkscape:window-y="25" inkscape:window-x="0" inkscape:window-height="1129" inkscape:window-width="1920" inkscape:pageshadow="2" inkscape:pageopacity="0">
	</sodipodi:namedview>
<rect id="rect25" x="531" y="457" display="none" fill="#FFFFFF" stroke="#FFFFFF" width="11" height="35"/>
<g>
	<g>
		<polygon fill="#FFFFFF" points="32.3,363.2 32.3,384.6 57.3,384.6 57.3,454.2 81,454.2 81,384.6 105.9,384.6 105.9,363.2 		"/>
		<path fill="#FFFFFF" d="M190.8,393.5c0-18.1-12.6-30.3-31.4-30.3h-42.7v91h23.5v-30.7h9.1l16.8,30.7h27.1l-19.9-33.8
			C182,417.1,190.8,408.6,190.8,393.5z M140.1,384.2h16.5c6.1,0,10.2,3.7,10.2,9.2c0,5.5-4.1,9.2-10.2,9.2h-16.5V384.2z"/>
		<polygon fill="#FFFFFF" points="200.1,454.2 266,454.2 266,433.1 223.6,433.1 223.6,418.5 265.1,418.5 265.1,397.5 223.6,397.5 
			223.6,384.2 266,384.2 266,363.2 200.1,363.2 		"/>
		<polygon fill="#FFFFFF" points="345.7,381.4 345.7,363.2 276.1,363.2 276.1,384.6 313.9,384.6 276.1,435.9 276.1,454.2 
			345.7,454.2 345.7,432.9 307.8,432.9 		"/>
		<path fill="#FFFFFF" d="M395.6,361.8c-27.4,0-47.4,19.8-47.4,47c0,27.2,19.9,47,47.4,47c27.5,0,47.5-19.8,47.5-47
			C443.1,381.6,423.1,361.8,395.6,361.8z M395.6,434.3c-13.7,0-23.3-10.5-23.3-25.5c0-15.2,9.4-25.5,23.3-25.5
			c13.8,0,23.4,10.5,23.4,25.5C419.1,423.8,409.4,434.3,395.6,434.3z"/>
		<path fill="#FFFFFF" d="M507.8,420.5c8.7-3.3,17.4-11.9,17.4-27c0-18.1-12.6-30.3-31.4-30.3h-42.7v91h23.5v-30.7h9.2l16.8,30.7
			h27.1L507.8,420.5z M474.6,384.2h16.5c6.1,0,10.2,3.7,10.2,9.2c0,5.5-4.1,9.2-10.2,9.2h-16.5V384.2z"/>
	</g>
	<path fill="#FFFFFF" d="M318.6,162v-14c0-24.1-20.5-43.7-45.7-43.7c-25.2,0-45.8,19.6-45.8,43.7v14h-18.9v100.1h0.1l64.5,30.2
		l64.5-30.2h0.1V162H318.6z M250.6,148c0-11.2,10-20.2,22.3-20.2c12.3,0,22.3,9.1,22.3,20.2v14h-44.6V148z M311.5,245.5l-38.6,18
		l-38.6-18v-60h77.3V245.5z"/>
</g>
</svg>
